<svg width="264" height="97" viewBox="0 0 264 97" fill="none" xmlns="http://www.w3.org/2000/svg">
<mask id="mask0_0_1" style="mask-type:alpha" maskUnits="userSpaceOnUse" x="0" y="0" width="264" height="97">
<rect width="264" height="97" fill="#D9D9D9"/>
</mask>
<g mask="url(#mask0_0_1)">
<path d="M172.227 34.5H152.318C151.955 31.9242 151.212 29.6364 150.091 27.6364C148.97 25.6061 147.53 23.8788 145.773 22.4545C144.015 21.0303 141.985 19.9394 139.682 19.1818C137.409 18.4242 134.939 18.0455 132.273 18.0455C127.455 18.0455 123.258 19.2424 119.682 21.6364C116.106 24 113.333 27.4545 111.364 32C109.394 36.5151 108.409 42 108.409 48.4545C108.409 55.0909 109.394 60.6667 111.364 65.1818C113.364 69.697 116.151 73.1061 119.727 75.4091C123.303 77.7121 127.439 78.8636 132.136 78.8636C134.773 78.8636 137.212 78.5152 139.455 77.8182C141.727 77.1212 143.742 76.1061 145.5 74.7727C147.258 73.4091 148.712 71.7576 149.864 69.8182C151.045 67.8788 151.864 65.6667 152.318 63.1818L172.227 63.2727C171.712 67.5455 170.424 71.6667 168.364 75.6364C166.333 79.5758 163.591 83.1061 160.136 86.2273C156.712 89.3182 152.621 91.7727 147.864 93.5909C143.136 95.3788 137.788 96.2727 131.818 96.2727C123.515 96.2727 116.091 94.3939 109.545 90.6364C103.03 86.8788 97.8788 81.4394 94.0909 74.3182C90.3333 67.197 88.4545 58.5758 88.4545 48.4545C88.4545 38.303 90.3636 29.6667 94.1818 22.5455C98 15.4242 103.182 10 109.727 6.27273C116.273 2.51515 123.636 0.63636 131.818 0.63636C137.212 0.63636 142.212 1.39394 146.818 2.90909C151.455 4.42424 155.561 6.63636 159.136 9.54545C162.712 12.4242 165.621 15.9545 167.864 20.1364C170.136 24.3182 171.591 29.1061 172.227 34.5ZM243.841 1.90909H263.523V62.3636C263.523 69.1515 261.901 75.0909 258.659 80.1818C255.447 85.2727 250.947 89.2424 245.159 92.0909C239.371 94.9091 232.629 96.3182 224.932 96.3182C217.205 96.3182 210.447 94.9091 204.659 92.0909C198.871 89.2424 194.371 85.2727 191.159 80.1818C187.947 75.0909 186.341 69.1515 186.341 62.3636V1.90909H206.023V60.6818C206.023 64.2273 206.795 67.3788 208.341 70.1364C209.917 72.8939 212.129 75.0606 214.977 76.6364C217.826 78.2121 221.144 79 224.932 79C228.75 79 232.068 78.2121 234.886 76.6364C237.735 75.0606 239.932 72.8939 241.477 70.1364C243.053 67.3788 243.841 64.2273 243.841 60.6818V1.90909Z" fill="black"/>
<path fill-rule="evenodd" clip-rule="evenodd" d="M54.7469 0L33 7.48807L41.7529 32.9082L45.8451 31L89.864 125.399L97.0708 122.917L54.7469 0Z" fill="black"/>
<rect x="33.6034" width="23" height="110" transform="rotate(19 33.6034 0)" fill="black"/>
<rect x="34" width="21" height="7" fill="black"/>
<path fill-rule="evenodd" clip-rule="evenodd" d="M46.5957 67L84.0637 104.429L89.8681 97H83V86.0376L51.3532 67H46.5957Z" fill="black"/>
</g>
</svg>
